<svg clip-rule="evenodd" fill-rule="evenodd" fill="#ffffff" height="512" image-rendering="optimizeQuality" shape-rendering="geometricPrecision" text-rendering="geometricPrecision" viewBox="0 0 512 512" width="512" xmlns="http://www.w3.org/2000/svg" xmlns:xodm="http://www.corel.com/coreldraw/odm/2003"><g id="Layer_x0020_1"><path d="m256 0c141.38 0 256 114.62 256 256s-114.62 256-256 256-256-114.62-256-256 114.62-256 256-256zm-38.29 377.47v-116.54h-16.46c-5 0-9.05-4.06-9.05-9.05v-36.9c0-4.97 4.07-9.04 9.05-9.04h16.46v-29.67c0-28.05 22.75-50.79 50.8-50.79h42.24c5 0 9.05 4.05 9.05 9.05v36.89c0 5-4.05 9.05-9.05 9.05h-25c-2.85 0-5.2 2.35-5.2 5.2v20.29l29.65-.02c5 .35 9.05 3.72 9.05 9.04-.88 12.5-2.1 25.13-3.16 37.65-.39 4.67-4.32 8.3-9.01 8.3h-26.53v116.54c0 4.97-4.06 9.04-9.04 9.04l-44.75.01c-4.99 0-9.05-4.06-9.05-9.05zm11.82-2.75h39.2v-125.61h35.81l2.65-31.38h-38.46v-32.06c0-9.4 7.62-17.02 17.02-17.02h22.23v-31.35h-39.47c-21.53 0-38.98 17.45-38.98 38.97v41.48h-25.51v31.36h25.51zm26.47-362.91c-134.86 0-244.19 109.33-244.19 244.19s109.33 244.19 244.19 244.19 244.19-109.33 244.19-244.19-109.33-244.19-244.19-244.19z" fill-rule="nonzero"/></g></svg>