<svg clip-rule="evenodd" fill-rule="evenodd" fill="#ffffff" height="512" image-rendering="optimizeQuality" shape-rendering="geometricPrecision" text-rendering="geometricPrecision" viewBox="0 0 512 512" width="512" xmlns="http://www.w3.org/2000/svg" xmlns:xodm="http://www.corel.com/coreldraw/odm/2003"><g id="Layer_x0020_1"><path d="m256 .09c141.33 0 255.91 114.58 255.91 255.91s-114.58 255.91-255.91 255.91-255.91-114.58-255.91-255.91 114.58-255.91 255.91-255.91zm-105.46 366.03h36.07v-142.89h-36.07zm112.62-75.3c0-22.54 10.62-40.61 35.08-40.61 24.15 0 31.97 19.47 31.97 40.61v75.32h35.85v-92.06c0-32.7-15.84-55.57-50.38-55.57-15.68 0-33.79 8.22-41.45 22.49l-11.07 20.19v-37.96h-34.13v142.89h34.13zm11.81 0v87.11h-57.75v-166.51h57.75v10.63c11.4-10.21 25.4-15.35 40.71-15.35 41.06 0 62.19 28.14 62.19 67.38v103.82l-59.47.01v-87.09c0-14.2-3.13-28.8-20.16-28.8-17.76 0-23.27 12.92-23.27 28.8zm-106.62-99.65c12.5 0 22.41-10.22 22.41-22.65 0-12.44-9.91-22.64-22.41-22.64s-22.41 10.2-22.41 22.64c0 12.43 9.9 22.65 22.41 22.65zm0 11.81c-18.97 0-34.22-15.56-34.22-34.46s15.25-34.45 34.22-34.45c18.96 0 34.22 15.55 34.22 34.45 0 18.89-15.26 34.46-34.22 34.46zm-29.62 174.95v-166.51h59.69v166.51zm117.27-366.02c-134.81 0-244.1 109.28-244.1 244.09s109.29 244.09 244.1 244.09 244.1-109.28 244.1-244.09-109.29-244.09-244.1-244.09z" fill-rule="nonzero"/></g></svg>