<svg clip-rule="evenodd" fill-rule="evenodd" fill="#ffffff" height="512" image-rendering="optimizeQuality" shape-rendering="geometricPrecision" text-rendering="geometricPrecision" viewBox="0 0 512 512" width="512" xmlns="http://www.w3.org/2000/svg" xmlns:xodm="http://www.corel.com/coreldraw/odm/2003"><g id="Layer_x0020_1"><path d="m256 .09c141.33 0 255.91 114.58 255.91 255.91s-114.58 255.91-255.91 255.91-255.91-114.58-255.91-255.91 114.58-255.91 255.91-255.91zm85.72 351.11c-.02.05-7.42 18.52-27.27 9.86-10.79-4.72-77.95-59.44-92.97-70.94 29.26-26.3 58.52-52.6 87.76-78.93l-109.82 69.74c-17.97-6.05-35.95-12.06-53.9-18.15-16.01-5.14-17.84-22.95.06-29.73l208.53-81.82c2-.85 25.22-9.68 25.22 10.96zm-11.08-4.15 36.84-185.76c-.62-2.75-8.87.83-8.89.84l-209.03 81.98c-6.53 2.17-6.69 5.23-.18 7.55l48.44 16.31 130.36-82.76c4.43-2.7 11.11-4.61 14.98.04 3.91 4.71.63 10.5-3.17 14.05-3.76 3.51-77.52 69.83-100.07 90.1l79.85 61.12c7.01 2.71 10.1-1.99 10.87-3.47zm-74.64-335.14c-134.81 0-244.1 109.28-244.1 244.09s109.29 244.09 244.1 244.09 244.1-109.28 244.1-244.09-109.29-244.09-244.1-244.09z" fill-rule="nonzero"/></g></svg>